<svg xmlns="http://www.w3.org/2000/svg" xmlns:xlink="http://www.w3.org/1999/xlink" version="1.1" id="Capa_1" x="0px" y="0px" width="29.863px" height="29.863px" viewBox="0 0 29.863 29.863" style="enable-background:new 0 0 29.863 29.863;" xml:space="preserve">
<g>
	<g>
		<path d="M11.375,20.506c1.098-1.592,1.795-3.95,2.037-6.147l0.133-1.199l-2.478,1.551l-1.721-0.549L7.74,15.216l-2.065-0.501    l-1.388,1.002l-0.383-0.118L3.873,15.56l-0.021,0.023l-2.256-0.692l0.499,1.159c0.141,0.328,0.302,0.667,0.477,1.012    c-0.339,0.44-0.622,0.866-0.83,1.26C0.158,21.315,1.305,25.04,4.3,26.625c2.994,1.584,6.719,0.437,8.302-2.558    c0.363-0.688,0.685-1.606,0.931-2.659l0.165-0.709l-2.184-0.022L11.375,20.506z M4.5,17.002l1.423-1.024l2.035,0.492l1.564-1.026    l1.707,0.543l0.839-0.524c-0.528,2.793-1.786,5.503-3.417,5.746c-0.417,0.063-0.877-0.037-1.367-0.296    c-1.201-0.637-2.528-2.202-3.552-4.146L4.5,17.002z M11.568,23.522c-1.282,2.424-4.298,3.354-6.723,2.069    c-2.425-1.282-3.354-4.3-2.072-6.724c0.112-0.212,0.256-0.442,0.422-0.682c0.938,1.553,2.168,3.032,3.541,3.758    c0.716,0.38,1.418,0.521,2.086,0.421c0.662-0.099,1.258-0.438,1.787-0.945l0.337,0.42l1.262,0.013    C12.021,22.506,11.8,23.083,11.568,23.522z"/>
		<polygon points="1.084,25.69 0.958,26.858 0,27.642 0.251,28.424 1.729,28.192 2.594,26.858   "/>
		<polygon points="3.304,28.097 2.628,28.31 2.594,28.778 3.431,28.971 4.175,28.446 3.621,27.502   "/>
		<polygon points="1.27,29.065 1.041,29.137 1.029,29.297 1.313,29.362 1.565,29.185 1.377,28.864   "/>
	</g>
	<g>
		<path d="M27.631,4.399c-0.564-1.764-2.217-3.042-4.169-3.042c-2.237,0-4.079,1.679-4.342,3.846c-0.001,0-0.001,0.001-0.002,0.001    c-1.06-0.152-2.054-1.81-3.073-4.703c-2.273,2.704-2.135,5.7-1.451,6.823c-1.449,0.159-4.235-0.688-5.451-1.351    c2.12,4.738,5.151,7.051,8.119,7.687c1.006,0.534,2.15,0.843,3.369,0.843c0.129,0,0.254-0.013,0.383-0.019l-0.604,1.024    l-1.276,0.418l0.104,0.315l1.236-0.405l0.584,0.599l0.236-0.231l-0.564-0.581l0.685-1.163c0.472-0.051,0.93-0.146,1.37-0.284    l1.308,1.674l-1.108,0.41l0.115,0.311l1.258-0.465l1.158,0.518l0.135-0.303l-1.182-0.528l-1.355-1.734    c2.742-1.006,4.707-3.624,4.729-6.711c0.033-0.104,0.065-0.206,0.091-0.298C27.98,6.876,29.863,5,29.863,5L27.631,4.399z     M25.172,5.993c-0.663,0-1.201-0.538-1.201-1.202s0.538-1.202,1.201-1.202c0.664,0,1.202,0.538,1.202,1.202    C26.375,5.456,25.836,5.993,25.172,5.993z"/>
		<path d="M25.255,4.19L25.255,4.19c0.024,0.047,0.043,0.099,0.043,0.156c0,0.184-0.149,0.333-0.333,0.333    c-0.107,0-0.197-0.054-0.259-0.131c-0.033,0.074-0.052,0.157-0.052,0.243c0,0.333,0.269,0.601,0.6,0.601    c0.333,0,0.602-0.269,0.602-0.601S25.587,4.19,25.255,4.19z"/>
	</g>
</g>
<g>
</g>
<g>
</g>
<g>
</g>
<g>
</g>
<g>
</g>
<g>
</g>
<g>
</g>
<g>
</g>
<g>
</g>
<g>
</g>
<g>
</g>
<g>
</g>
<g>
</g>
<g>
</g>
<g>
</g>
</svg>